<svg version="1.1" xmlns="http://www.w3.org/2000/svg" xmlns:xlink="http://www.w3.org/1999/xlink" width="392" height="392" viewBox="0 0 392 392"><defs><path id="f" fill="black" fill-rule="evenodd" d="M 0 10 a10,10 0 0 1 10,-10 h36 a10,10 0 0 1 10,10 v36 a10,10 0 0 1 -10,10 h-36 a10,10 0 0 1 -10,-10 Z M 8 10 a2,2 0 0 1 2,-2 h36 a2,2 0 0 1 2,2 v36 a2,2 0 0 1 -2,2 h-36 a2,2 0 0 1 -2,-2 Z M 16 18 a2,2 0 0 1 2,-2 h20 a2,2 0 0 1 2,2 v20 a2,2 0 0 1 -2,2 h-20 a2,2 0 0 1 -2,-2 Z" /><path id="s" fill="black" fill-rule="evenodd" d="M 0 7 C 0 2.8 2.8 0 7 0 L 33 0 C 37.2 0 40 2.8 40 7 L 40 33 C 40 37.2 37.2 40 33 40 L 7 40 C 2.8 40 0 37.2 0 33 Z M 8 10 C 8 8.8 8.8 8 10 8 L 30 8 C 31.2 8 32 8.8 32 10 L 32 30 C 32 31.2 31.2 32 30 32 L 10 32 C 8.8 32 8 31.2 8 30 Z M 15 16 C 15 15.5 15.5 15 16 15 L 24 15 C 24.5 15 25 15.5 25 16 L 25 24 C 25 24.5 24.5 25 24 25 L 16 25 C 15.5 25 15 24.5 15 24 Z" /></defs><rect fill="white" x="0" y="0" width="392" height="392" rx="26" ry="26" /><use xlink:href="#f" x="16" y="16" /><use xlink:href="#f" x="16" y="320" /><use xlink:href="#f" x="320" y="16" /><path fill="black" d="M89 20a3,3 0 0 1 3,-3h8a3,3 0 0 1 3,3a3,3 0 0 1 -3,3h-8a3,3 0 0 1 -3,-3z" /><path fill="black" d="M129 20a3,3 0 0 1 3,-3h8a3,3 0 0 1 3,3v5h13a3,3 0 0 1 3,3a3,3 0 0 1 -3,3h-5v5a3,3 0 0 1 -3,3h-8a3,3 0 0 1 -3,-3v-5h-18v10h13a3,3 0 0 1 3,3a3,3 0 0 1 -3,3h-5v10h10v-5a3,3 0 0 1 3,-3h8a3,3 0 0 1 3,3v5h10v-10h-5a3,3 0 0 1 -3,-3a3,3 0 0 1 3,-3h8a3,3 0 0 1 3,3v5h45a3,3 0 0 1 3,3v5h5a3,3 0 0 1 3,3a3,3 0 0 1 -3,3h-5v21a3,3 0 0 1 -3,3h-13v5a3,3 0 0 1 -3,3h-13v10h5a3,3 0 0 1 3,3v8a3,3 0 0 1 -3,3h-24a3,3 0 0 1 -3,-3v-5h-5a3,3 0 0 1 -3,-3a3,3 0 0 1 3,-3h13v-10h-5a3,3 0 0 1 -3,-3v-13h-26v5a3,3 0 0 1 -3,3h-5v5a3,3 0 0 1 -3,3h-5v5a3,3 0 0 1 -3,3a3,3 0 0 1 -3,-3v-5h-10v13a3,3 0 0 1 -3,3h-13v10h18v-5a3,3 0 0 1 3,-3h8a3,3 0 0 1 3,3v8a3,3 0 0 1 -3,3h-5v5a3,3 0 0 1 -3,3a3,3 0 0 1 -3,-3v-5h-29a3,3 0 0 1 -3,-3a3,3 0 0 1 3,-3h5v-13a3,3 0 0 1 3,-3h13v-10h-13a3,3 0 0 1 -3,-3v-24a3,3 0 0 1 3,-3a3,3 0 0 1 3,3v5h5a3,3 0 0 1 3,3a3,3 0 0 1 -3,3h-5v10h34v-5a3,3 0 0 1 3,-3h5v-18h-5a3,3 0 0 1 -3,-3v-5h-13a3,3 0 0 1 -3,-3v-5h-5a3,3 0 0 1 -3,-3a3,3 0 0 1 3,-3h5v-5a3,3 0 0 1 3,-3h5v-5a3,3 0 0 1 3,-3h13v-5zM209 55h-26v26h26v-26zM177 63h-10v10h10v-10zM161 63h-10v10h10v-10zM145 63h-10v10h10v-10z" /><rect fill="black" x="160" y="16" width="8" height="8" rx="2" ry="2" /><path fill="black" d="M185 20a3,3 0 0 1 3,-3h16a3,3 0 0 1 3,3v13h10v-5a3,3 0 0 1 3,-3a3,3 0 0 1 3,3v13h10v-13a3,3 0 0 1 3,-3h8a3,3 0 0 1 3,3a3,3 0 0 1 -3,3h-5v10h10v-5a3,3 0 0 1 3,-3a3,3 0 0 1 3,3v8a3,3 0 0 1 -3,3h-21v5a3,3 0 0 1 -3,3a3,3 0 0 1 -3,-3v-5h-5a3,3 0 0 1 -3,-3v-5h-13a3,3 0 0 1 -3,-3v-5h-26v5a3,3 0 0 1 -3,3a3,3 0 0 1 -3,-3v-8a3,3 0 0 1 3,-3h13v-5z" /><rect fill="black" x="224" y="16" width="8" height="8" rx="2" ry="2" /><path fill="black" d="M257 20a3,3 0 0 1 3,-3h8a3,3 0 0 1 3,3v5h5a3,3 0 0 1 3,3v5h5a3,3 0 0 1 3,3v8a3,3 0 0 1 -3,3h-13v10h5a3,3 0 0 1 3,3v8a3,3 0 0 1 -3,3a3,3 0 0 1 -3,-3v-5h-5a3,3 0 0 1 -3,-3v-5h-5a3,3 0 0 1 -3,-3a3,3 0 0 1 3,-3h5v-26h-5a3,3 0 0 1 -3,-3z" /><rect fill="black" x="280" y="16" width="8" height="8" rx="2" ry="2" /><rect fill="black" x="304" y="16" width="8" height="8" rx="2" ry="2" /><rect fill="black" x="80" y="24" width="8" height="8" rx="2" ry="2" /><path fill="black" d="M297 28a3,3 0 0 1 3,-3a3,3 0 0 1 3,3v13h5a3,3 0 0 1 3,3v8a3,3 0 0 1 -3,3h-16a3,3 0 0 1 -3,-3a3,3 0 0 1 3,-3h5v-21z" /><path fill="black" d="M81 44a3,3 0 0 1 3,-3a3,3 0 0 1 3,3v8a3,3 0 0 1 -3,3a3,3 0 0 1 -3,-3v-8z" /><path fill="black" d="M89 60a3,3 0 0 1 3,-3h8a3,3 0 0 1 3,3v8a3,3 0 0 1 -3,3a3,3 0 0 1 -3,-3v-5h-5a3,3 0 0 1 -3,-3z" /><path fill="black" d="M241 60a3,3 0 0 1 3,-3a3,3 0 0 1 3,3v13h5a3,3 0 0 1 3,3v13h5a3,3 0 0 1 3,3a3,3 0 0 1 -3,3h-8a3,3 0 0 1 -3,-3v-5h-5a3,3 0 0 1 -3,-3v-24z" /><rect fill="black" x="112" y="64" width="8" height="8" rx="2" ry="2" /><rect fill="black" x="192" y="64" width="8" height="8" rx="2" ry="2" /><path fill="black" d="M225 68a3,3 0 0 1 3,-3a3,3 0 0 1 3,3v8a3,3 0 0 1 -3,3a3,3 0 0 1 -3,-3v-8z" /><rect fill="black" x="256" y="64" width="8" height="8" rx="2" ry="2" /><path fill="black" d="M289 68a3,3 0 0 1 3,-3a3,3 0 0 1 3,3v5h10v-5a3,3 0 0 1 3,-3a3,3 0 0 1 3,3v8a3,3 0 0 1 -3,3h-21v10h26v-5a3,3 0 0 1 3,-3h8a3,3 0 0 1 3,3v8a3,3 0 0 1 -3,3h-5v10h5a3,3 0 0 1 3,3a3,3 0 0 1 -3,3h-16a3,3 0 0 1 -3,-3v-5h-10v10h5a3,3 0 0 1 3,3v5h5a3,3 0 0 1 3,3v8a3,3 0 0 1 -3,3a3,3 0 0 1 -3,-3v-5h-5a3,3 0 0 1 -3,-3v-5h-5a3,3 0 0 1 -3,-3v-13h-10v13a3,3 0 0 1 -3,3a3,3 0 0 1 -3,-3v-13h-5a3,3 0 0 1 -3,-3a3,3 0 0 1 3,-3h13v-21a3,3 0 0 1 3,-3h5v-5z" /><path fill="black" d="M25 84a3,3 0 0 1 3,-3a3,3 0 0 1 3,3v5h5a3,3 0 0 1 3,3v5h10v-10h-5a3,3 0 0 1 -3,-3a3,3 0 0 1 3,-3h24a3,3 0 0 1 3,3a3,3 0 0 1 -3,3h-5v10h5a3,3 0 0 1 3,3a3,3 0 0 1 -3,3h-29v18h5a3,3 0 0 1 3,3a3,3 0 0 1 -3,3h-8a3,3 0 0 1 -3,-3v-13h-10v42h5a3,3 0 0 1 3,3a3,3 0 0 1 -3,3h-5v10h5a3,3 0 0 1 3,3a3,3 0 0 1 -3,3h-8a3,3 0 0 1 -3,-3v-64a3,3 0 0 1 3,-3h13v-10h-5a3,3 0 0 1 -3,-3v-8z" /><path fill="black" d="M337 84a3,3 0 0 1 3,-3h8a3,3 0 0 1 3,3v5h5a3,3 0 0 1 3,3a3,3 0 0 1 -3,3h-16a3,3 0 0 1 -3,-3v-8z" /><rect fill="black" x="360" y="80" width="8" height="8" rx="2" ry="2" /><path fill="black" d="M225 92a3,3 0 0 1 3,-3h8a3,3 0 0 1 3,3v8a3,3 0 0 1 -3,3a3,3 0 0 1 -3,-3v-5h-5a3,3 0 0 1 -3,-3z" /><path fill="black" d="M129 100a3,3 0 0 1 3,-3h8a3,3 0 0 1 3,3a3,3 0 0 1 -3,3h-8a3,3 0 0 1 -3,-3z" /><rect fill="black" x="200" y="96" width="8" height="8" rx="2" ry="2" /><rect fill="black" x="216" y="96" width="8" height="8" rx="2" ry="2" /><path fill="black" d="M361 100a3,3 0 0 1 3,-3h8a3,3 0 0 1 3,3a3,3 0 0 1 -3,3h-5v10h5a3,3 0 0 1 3,3a3,3 0 0 1 -3,3h-5v18h5a3,3 0 0 1 3,3a3,3 0 0 1 -3,3h-16a3,3 0 0 1 -3,-3a3,3 0 0 1 3,-3h5v-26h-5a3,3 0 0 1 -3,-3a3,3 0 0 1 3,-3h5v-5z" /><path fill="black" d="M225 108a3,3 0 0 1 3,-3a3,3 0 0 1 3,3v8a3,3 0 0 1 -3,3a3,3 0 0 1 -3,-3v-8z" /><path fill="black" d="M249 108a3,3 0 0 1 3,-3h8a3,3 0 0 1 3,3v16a3,3 0 0 1 -3,3h-8a3,3 0 0 1 -3,-3a3,3 0 0 1 3,-3h5v-10h-5a3,3 0 0 1 -3,-3z" /><path fill="black" d="M49 116a3,3 0 0 1 3,-3h16a3,3 0 0 1 3,3a3,3 0 0 1 -3,3h-16a3,3 0 0 1 -3,-3z" /><rect fill="black" x="128" y="112" width="8" height="8" rx="2" ry="2" /><rect fill="black" x="200" y="112" width="8" height="8" rx="2" ry="2" /><rect fill="black" x="240" y="112" width="8" height="8" rx="2" ry="2" /><rect fill="black" x="336" y="112" width="8" height="8" rx="2" ry="2" /><rect fill="black" x="280" y="120" width="8" height="8" rx="2" ry="2" /><path fill="black" d="M321 124a3,3 0 0 1 3,-3h8a3,3 0 0 1 3,3a3,3 0 0 1 -3,3h-5v5a3,3 0 0 1 -3,3a3,3 0 0 1 -3,-3v-8z" /><rect fill="black" x="344" y="120" width="8" height="8" rx="2" ry="2" /><path fill="black" d="M49 132a3,3 0 0 1 3,-3h16a3,3 0 0 1 3,3a3,3 0 0 1 -3,3h-5v5a3,3 0 0 1 -3,3a3,3 0 0 1 -3,-3v-5h-5a3,3 0 0 1 -3,-3z" /><rect fill="black" x="264" y="128" width="8" height="8" rx="2" ry="2" /><rect fill="black" x="336" y="128" width="8" height="8" rx="2" ry="2" /><path fill="black" d="M81 140a3,3 0 0 1 3,-3h16a3,3 0 0 1 3,3v24a3,3 0 0 1 -3,3h-8a3,3 0 0 1 -3,-3v-5h-5a3,3 0 0 1 -3,-3a3,3 0 0 1 3,-3h13v-10h-13a3,3 0 0 1 -3,-3z" /><path fill="black" d="M113 140a3,3 0 0 1 3,-3a3,3 0 0 1 3,3v40a3,3 0 0 1 -3,3h-5v13a3,3 0 0 1 -3,3h-8a3,3 0 0 1 -3,-3a3,3 0 0 1 3,-3h5v-10h-5a3,3 0 0 1 -3,-3a3,3 0 0 1 3,-3h5v-5a3,3 0 0 1 3,-3h5v-29z" /><rect fill="black" x="296" y="136" width="8" height="8" rx="2" ry="2" /><path fill="black" d="M313 140a3,3 0 0 1 3,-3a3,3 0 0 1 3,3v16a3,3 0 0 1 -3,3h-24a3,3 0 0 1 -3,-3v-5h-10v10h5a3,3 0 0 1 3,3v13h18v-5a3,3 0 0 1 3,-3a3,3 0 0 1 3,3v5h10v-5a3,3 0 0 1 3,-3a3,3 0 0 1 3,3v5h10v-5a3,3 0 0 1 3,-3h5v-5a3,3 0 0 1 3,-3h5v-5a3,3 0 0 1 3,-3a3,3 0 0 1 3,3v16a3,3 0 0 1 -3,3h-13v18h29a3,3 0 0 1 3,3a3,3 0 0 1 -3,3h-5v5a3,3 0 0 1 -3,3h-8a3,3 0 0 1 -3,-3v-5h-10v13a3,3 0 0 1 -3,3h-21v5a3,3 0 0 1 -3,3a3,3 0 0 1 -3,-3v-5h-5a3,3 0 0 1 -3,-3v-5h-5a3,3 0 0 1 -3,-3a3,3 0 0 1 3,-3h5v-10h-10v5a3,3 0 0 1 -3,3h-5v5a3,3 0 0 1 -3,3h-5v5a3,3 0 0 1 -3,3a3,3 0 0 1 -3,-3v-13h-5a3,3 0 0 1 -3,-3a3,3 0 0 1 3,-3h5v-5a3,3 0 0 1 3,-3a3,3 0 0 1 3,3v5h10v-10h-5a3,3 0 0 1 -3,-3v-13h-10v5a3,3 0 0 1 -3,3a3,3 0 0 1 -3,-3v-24a3,3 0 0 1 3,-3h24a3,3 0 0 1 3,3v5h18v-13zM337 183h-26v26h26v-26z" /><rect fill="black" x="40" y="144" width="8" height="8" rx="2" ry="2" /><path fill="black" d="M65 148a3,3 0 0 1 3,-3h8a3,3 0 0 1 3,3a3,3 0 0 1 -3,3h-8a3,3 0 0 1 -3,-3z" /><rect fill="black" x="336" y="152" width="8" height="8" rx="2" ry="2" /><path fill="black" d="M369 156a3,3 0 0 1 3,-3a3,3 0 0 1 3,3v8a3,3 0 0 1 -3,3a3,3 0 0 1 -3,-3v-8z" /><rect fill="black" x="32" y="160" width="8" height="8" rx="2" ry="2" /><path fill="black" d="M57 164a3,3 0 0 1 3,-3h8a3,3 0 0 1 3,3a3,3 0 0 1 -3,3h-8a3,3 0 0 1 -3,-3z" /><path fill="black" d="M41 172a3,3 0 0 1 3,-3a3,3 0 0 1 3,3v5h34v-5a3,3 0 0 1 3,-3a3,3 0 0 1 3,3v37h5a3,3 0 0 1 3,3v5h13a3,3 0 0 1 3,3a3,3 0 0 1 -3,3h-5v13a3,3 0 0 1 -3,3a3,3 0 0 1 -3,-3v-5h-10v21a3,3 0 0 1 -3,3h-8a3,3 0 0 1 -3,-3v-5h-5a3,3 0 0 1 -3,-3a3,3 0 0 1 3,-3h13v-13a3,3 0 0 1 3,-3h5v-10h-26v5a3,3 0 0 1 -3,3a3,3 0 0 1 -3,-3v-5h-10v13a3,3 0 0 1 -3,3a3,3 0 0 1 -3,-3v-5h-5a3,3 0 0 1 -3,-3a3,3 0 0 1 3,-3h5v-10h-5a3,3 0 0 1 -3,-3v-16a3,3 0 0 1 3,-3h5v-13zM81 183h-26v26h26v-26z" /><rect fill="black" x="360" y="176" width="8" height="8" rx="2" ry="2" /><path fill="black" d="M17 196a3,3 0 0 1 3,-3a3,3 0 0 1 3,3v8a3,3 0 0 1 -3,3a3,3 0 0 1 -3,-3v-8z" /><rect fill="black" x="64" y="192" width="8" height="8" rx="2" ry="2" /><rect fill="black" x="320" y="192" width="8" height="8" rx="2" ry="2" /><path fill="black" d="M113 204a3,3 0 0 1 3,-3a3,3 0 0 1 3,3v8a3,3 0 0 1 -3,3a3,3 0 0 1 -3,-3v-8z" /><rect fill="black" x="288" y="208" width="8" height="8" rx="2" ry="2" /><rect fill="black" x="368" y="208" width="8" height="8" rx="2" ry="2" /><rect fill="black" x="280" y="216" width="8" height="8" rx="2" ry="2" /><rect fill="black" x="344" y="216" width="8" height="8" rx="2" ry="2" /><rect fill="black" x="360" y="216" width="8" height="8" rx="2" ry="2" /><path fill="black" d="M17 228a3,3 0 0 1 3,-3h8a3,3 0 0 1 3,3a3,3 0 0 1 -3,3h-5v10h5a3,3 0 0 1 3,3a3,3 0 0 1 -3,3h-5v10h18v-5a3,3 0 0 1 3,-3a3,3 0 0 1 3,3v8a3,3 0 0 1 -3,3h-5v5a3,3 0 0 1 -3,3h-16a3,3 0 0 1 -3,-3v-40z" /><rect fill="black" x="64" y="224" width="8" height="8" rx="2" ry="2" /><rect fill="black" x="272" y="224" width="8" height="8" rx="2" ry="2" /><path fill="black" d="M289 228a3,3 0 0 1 3,-3h16a3,3 0 0 1 3,3a3,3 0 0 1 -3,3h-5v37a3,3 0 0 1 -3,3a3,3 0 0 1 -3,-3v-5h-5a3,3 0 0 1 -3,-3v-5h-10v5a3,3 0 0 1 -3,3h-5v13a3,3 0 0 1 -3,3h-5v5a3,3 0 0 1 -3,3h-8a3,3 0 0 1 -3,-3v-5h-5a3,3 0 0 1 -3,-3v-8a3,3 0 0 1 3,-3h5v-5a3,3 0 0 1 3,-3a3,3 0 0 1 3,3v5h10v-10h-5a3,3 0 0 1 -3,-3a3,3 0 0 1 3,-3h5v-5a3,3 0 0 1 3,-3h8a3,3 0 0 1 3,3v5h18v-18h-5a3,3 0 0 1 -3,-3z" /><rect fill="black" x="48" y="232" width="8" height="8" rx="2" ry="2" /><path fill="black" d="M113 236a3,3 0 0 1 3,-3a3,3 0 0 1 3,3v8a3,3 0 0 1 -3,3a3,3 0 0 1 -3,-3v-8z" /><rect fill="black" x="280" y="232" width="8" height="8" rx="2" ry="2" /><rect fill="black" x="312" y="232" width="8" height="8" rx="2" ry="2" /><path fill="black" d="M329 236a3,3 0 0 1 3,-3h32a3,3 0 0 1 3,3v5h5a3,3 0 0 1 3,3v32a3,3 0 0 1 -3,3a3,3 0 0 1 -3,-3v-29h-5a3,3 0 0 1 -3,-3v-5h-18v13a3,3 0 0 1 -3,3a3,3 0 0 1 -3,-3v-13h-5a3,3 0 0 1 -3,-3z" /><rect fill="black" x="320" y="240" width="8" height="8" rx="2" ry="2" /><path fill="black" d="M105 252a3,3 0 0 1 3,-3a3,3 0 0 1 3,3v5h13a3,3 0 0 1 3,3v24a3,3 0 0 1 -3,3a3,3 0 0 1 -3,-3v-5h-18v5a3,3 0 0 1 -3,3a3,3 0 0 1 -3,-3v-13h-5a3,3 0 0 1 -3,-3a3,3 0 0 1 3,-3h5v-5a3,3 0 0 1 3,-3h5v-5zM113 263h-10v10h10v-10z" /><rect fill="black" x="312" y="248" width="8" height="8" rx="2" ry="2" /><path fill="black" d="M353 252a3,3 0 0 1 3,-3a3,3 0 0 1 3,3v16a3,3 0 0 1 -3,3a3,3 0 0 1 -3,-3v-5h-5a3,3 0 0 1 -3,-3a3,3 0 0 1 3,-3h5v-5z" /><rect fill="black" x="64" y="256" width="8" height="8" rx="2" ry="2" /><rect fill="black" x="320" y="256" width="8" height="8" rx="2" ry="2" /><path fill="black" d="M49 268a3,3 0 0 1 3,-3a3,3 0 0 1 3,3v5h18v-5a3,3 0 0 1 3,-3a3,3 0 0 1 3,3v8a3,3 0 0 1 -3,3h-13v5a3,3 0 0 1 -3,3h-5v21a3,3 0 0 1 -3,3h-8a3,3 0 0 1 -3,-3v-5h-13a3,3 0 0 1 -3,-3a3,3 0 0 1 3,-3h21v-29z" /><path fill="black" d="M145 268a3,3 0 0 1 3,-3a3,3 0 0 1 3,3v5h18v-5a3,3 0 0 1 3,-3a3,3 0 0 1 3,3v5h5a3,3 0 0 1 3,3a3,3 0 0 1 -3,3h-21v5a3,3 0 0 1 -3,3a3,3 0 0 1 -3,-3v-5h-10v18h18v-5a3,3 0 0 1 3,-3a3,3 0 0 1 3,3v8a3,3 0 0 1 -3,3h-24a3,3 0 0 1 -3,-3v-24a3,3 0 0 1 3,-3h5v-5z" /><rect fill="black" x="184" y="264" width="8" height="8" rx="2" ry="2" /><rect fill="black" x="200" y="264" width="8" height="8" rx="2" ry="2" /><path fill="black" d="M217 268a3,3 0 0 1 3,-3a3,3 0 0 1 3,3v5h5a3,3 0 0 1 3,3v8a3,3 0 0 1 -3,3h-8a3,3 0 0 1 -3,-3v-16z" /><path fill="black" d="M329 268a3,3 0 0 1 3,-3h8a3,3 0 0 1 3,3a3,3 0 0 1 -3,3h-5v10h5a3,3 0 0 1 3,3v8a3,3 0 0 1 -3,3a3,3 0 0 1 -3,-3v-5h-10v5a3,3 0 0 1 -3,3a3,3 0 0 1 -3,-3v-5h-5a3,3 0 0 1 -3,-3a3,3 0 0 1 3,-3h5v-5a3,3 0 0 1 3,-3h5v-5z" /><path fill="black" d="M193 276a3,3 0 0 1 3,-3a3,3 0 0 1 3,3v5h5a3,3 0 0 1 3,3a3,3 0 0 1 -3,3h-5v5a3,3 0 0 1 -3,3a3,3 0 0 1 -3,-3v-5h-5a3,3 0 0 1 -3,-3a3,3 0 0 1 3,-3h5v-5z" /><path fill="black" d="M17 284a3,3 0 0 1 3,-3h16a3,3 0 0 1 3,3a3,3 0 0 1 -3,3h-16a3,3 0 0 1 -3,-3z" /><rect fill="black" x="80" y="280" width="8" height="8" rx="2" ry="2" /><path fill="black" d="M273 284a3,3 0 0 1 3,-3h16a3,3 0 0 1 3,3v5h5a3,3 0 0 1 3,3a3,3 0 0 1 -3,3h-5v5a3,3 0 0 1 -3,3a3,3 0 0 1 -3,-3v-5h-5a3,3 0 0 1 -3,-3v-5h-5a3,3 0 0 1 -3,-3z" /><rect fill="black" x="352" y="280" width="8" height="8" rx="2" ry="2" /><rect fill="black" x="64" y="288" width="8" height="8" rx="2" ry="2" /><rect fill="black" x="104" y="288" width="8" height="8" rx="2" ry="2" /><rect fill="black" x="176" y="288" width="8" height="8" rx="2" ry="2" /><path fill="black" d="M209 292a3,3 0 0 1 3,-3a3,3 0 0 1 3,3v5h5a3,3 0 0 1 3,3v21h5a3,3 0 0 1 3,3v8a3,3 0 0 1 -3,3h-13v5a3,3 0 0 1 -3,3h-13v5a3,3 0 0 1 -3,3h-5v10h18v-5a3,3 0 0 1 3,-3a3,3 0 0 1 3,3v16a3,3 0 0 1 -3,3h-8a3,3 0 0 1 -3,-3v-5h-13a3,3 0 0 1 -3,-3v-5h-18v10h5a3,3 0 0 1 3,3a3,3 0 0 1 -3,3h-8a3,3 0 0 1 -3,-3v-5h-13a3,3 0 0 1 -3,-3a3,3 0 0 1 3,-3h5v-5a3,3 0 0 1 3,-3h13v-10h-18v5a3,3 0 0 1 -3,3a3,3 0 0 1 -3,-3v-29h-26v5a3,3 0 0 1 -3,3a3,3 0 0 1 -3,-3v-13h-5a3,3 0 0 1 -3,-3a3,3 0 0 1 3,-3h5v-5a3,3 0 0 1 3,-3a3,3 0 0 1 3,3v5h5a3,3 0 0 1 3,3v5h21a3,3 0 0 1 3,3v13h5a3,3 0 0 1 3,3v5h18v-26h-5a3,3 0 0 1 -3,-3a3,3 0 0 1 3,-3h37v-13zM209 311h-26v26h26v-26zM185 343h-10v10h10v-10z" /><rect fill="black" x="232" y="288" width="8" height="8" rx="2" ry="2" /><path fill="black" d="M361 292a3,3 0 0 1 3,-3h8a3,3 0 0 1 3,3v8a3,3 0 0 1 -3,3h-16a3,3 0 0 1 -3,-3a3,3 0 0 1 3,-3h5v-5z" /><rect fill="black" x="72" y="296" width="8" height="8" rx="2" ry="2" /><path fill="black" d="M89 300a3,3 0 0 1 3,-3h8a3,3 0 0 1 3,3a3,3 0 0 1 -3,3h-5v5a3,3 0 0 1 -3,3h-5v5a3,3 0 0 1 -3,3a3,3 0 0 1 -3,-3v-8a3,3 0 0 1 3,-3h5v-5z" /><path fill="black" d="M273 300a3,3 0 0 1 3,-3a3,3 0 0 1 3,3v5h5a3,3 0 0 1 3,3v24a3,3 0 0 1 -3,3a3,3 0 0 1 -3,-3v-5h-5a3,3 0 0 1 -3,-3a3,3 0 0 1 3,-3h5v-10h-5a3,3 0 0 1 -3,-3v-8z" /><rect fill="black" x="16" y="304" width="8" height="8" rx="2" ry="2" /><rect fill="black" x="64" y="304" width="8" height="8" rx="2" ry="2" /><path fill="black" d="M241 308a3,3 0 0 1 3,-3a3,3 0 0 1 3,3v5h10v-5a3,3 0 0 1 3,-3a3,3 0 0 1 3,3v8a3,3 0 0 1 -3,3h-5v10h13a3,3 0 0 1 3,3v5h5a3,3 0 0 1 3,3v8a3,3 0 0 1 -3,3h-16a3,3 0 0 1 -3,-3v-5h-5a3,3 0 0 1 -3,-3v-21h-5a3,3 0 0 1 -3,-3v-8z" /><rect fill="black" x="96" y="312" width="8" height="8" rx="2" ry="2" /><path fill="black" d="M161 316a3,3 0 0 1 3,-3a3,3 0 0 1 3,3v8a3,3 0 0 1 -3,3a3,3 0 0 1 -3,-3v-8z" /><rect fill="black" x="88" y="320" width="8" height="8" rx="2" ry="2" /><rect fill="black" x="192" y="320" width="8" height="8" rx="2" ry="2" /><path fill="black" d="M353 324a3,3 0 0 1 3,-3a3,3 0 0 1 3,3v5h13a3,3 0 0 1 3,3v8a3,3 0 0 1 -3,3h-5v5a3,3 0 0 1 -3,3a3,3 0 0 1 -3,-3v-13h-5a3,3 0 0 1 -3,-3v-8z" /><path fill="black" d="M81 332a3,3 0 0 1 3,-3a3,3 0 0 1 3,3v13h10v-5a3,3 0 0 1 3,-3a3,3 0 0 1 3,3v13h5a3,3 0 0 1 3,3a3,3 0 0 1 -3,3h-8a3,3 0 0 1 -3,-3v-5h-13a3,3 0 0 1 -3,-3v-16z" /><path fill="black" d="M129 332a3,3 0 0 1 3,-3a3,3 0 0 1 3,3v8a3,3 0 0 1 -3,3h-8a3,3 0 0 1 -3,-3a3,3 0 0 1 3,-3h5v-5z" /><path fill="black" d="M289 340a3,3 0 0 1 3,-3a3,3 0 0 1 3,3v5h5a3,3 0 0 1 3,3a3,3 0 0 1 -3,3h-8a3,3 0 0 1 -3,-3v-8z" /><path fill="black" d="M217 348a3,3 0 0 1 3,-3h8a3,3 0 0 1 3,3a3,3 0 0 1 -3,3h-8a3,3 0 0 1 -3,-3z" /><path fill="black" d="M241 348a3,3 0 0 1 3,-3a3,3 0 0 1 3,3v5h5a3,3 0 0 1 3,3v5h13a3,3 0 0 1 3,3a3,3 0 0 1 -3,3h-5v5a3,3 0 0 1 -3,3h-24a3,3 0 0 1 -3,-3a3,3 0 0 1 3,-3h13v-10h-5a3,3 0 0 1 -3,-3v-8z" /><rect fill="black" x="344" y="344" width="8" height="8" rx="2" ry="2" /><path fill="black" d="M121 356a3,3 0 0 1 3,-3h8a3,3 0 0 1 3,3a3,3 0 0 1 -3,3h-5v5a3,3 0 0 1 -3,3a3,3 0 0 1 -3,-3v-8z" /><path fill="black" d="M281 356a3,3 0 0 1 3,-3a3,3 0 0 1 3,3v5h5a3,3 0 0 1 3,3a3,3 0 0 1 -3,3h-8a3,3 0 0 1 -3,-3v-8z" /><path fill="black" d="M305 356a3,3 0 0 1 3,-3h16a3,3 0 0 1 3,3v16a3,3 0 0 1 -3,3a3,3 0 0 1 -3,-3v-13h-13a3,3 0 0 1 -3,-3z" /><rect fill="black" x="336" y="352" width="8" height="8" rx="2" ry="2" /><path fill="black" d="M353 356a3,3 0 0 1 3,-3a3,3 0 0 1 3,3v5h10v-5a3,3 0 0 1 3,-3a3,3 0 0 1 3,3v8a3,3 0 0 1 -3,3h-21v5a3,3 0 0 1 -3,3h-8a3,3 0 0 1 -3,-3a3,3 0 0 1 3,-3h5v-5a3,3 0 0 1 3,-3h5v-5z" /><rect fill="black" x="80" y="360" width="8" height="8" rx="2" ry="2" /><path fill="black" d="M89 372a3,3 0 0 1 3,-3h8a3,3 0 0 1 3,3a3,3 0 0 1 -3,3h-8a3,3 0 0 1 -3,-3z" /><rect fill="black" x="112" y="368" width="8" height="8" rx="2" ry="2" /><rect fill="black" x="304" y="368" width="8" height="8" rx="2" ry="2" /><use xlink:href="#s" x="304" y="304" /><svg width="144" height="144" viewBox="0 0 87 87" fill="none" xmlns="http://www.w3.org/2000/svg" x="120" y="120">
<path d="M68.6567 6.99336L68.5559 6.95671L68.4538 6.9244C64.1506 5.56411 60.1179 5.56509 54.0772 5.56655C53.8769 5.5666 53.6744 5.56665 53.4696 5.56665L33.5312 5.56665C33.3263 5.56665 33.1236 5.5666 32.9232 5.56655C26.8821 5.56509 22.8483 5.56411 18.5459 6.92452L18.4439 6.95677L18.3433 6.99336C13.0682 8.91315 8.91315 13.0682 6.99336 18.3433L6.95677 18.4439L6.92452 18.5459C5.56411 22.8483 5.56509 26.883 5.56655 32.9232C5.5666 33.1237 5.56665 33.3263 5.56665 33.5312L5.56665 53.4687C5.56665 53.6735 5.5666 53.8761 5.56655 54.0764C5.56509 60.1179 5.56411 64.1506 6.9244 68.4538L6.95671 68.5559L6.99336 68.6566C8.91315 73.9317 13.0682 78.0868 18.3433 80.0066L18.4439 80.0432L18.5459 80.0754C22.8483 81.4359 26.8821 81.4349 32.9232 81.4334C33.1236 81.4334 33.3263 81.4333 33.5312 81.4333H53.4696C53.6744 81.4333 53.8769 81.4334 54.0772 81.4334C60.1179 81.4349 64.1506 81.4359 68.4538 80.0756L68.5559 80.0433L68.6567 80.0066C73.9317 78.0868 78.0868 73.9317 80.0066 68.6566L80.0433 68.5559L80.0756 68.4538C81.4359 64.1506 81.4349 60.1179 81.4334 54.0764C81.4334 53.8761 81.4333 53.6735 81.4333 53.4687V33.5312C81.4333 33.3263 81.4334 33.1236 81.4334 32.9232C81.4349 26.8829 81.4359 22.8483 80.0755 18.5459L80.0432 18.4439L80.0066 18.3433C78.0868 13.0682 73.9317 8.91315 68.6567 6.99336Z" fill="#008096" stroke="white" stroke-width="10"/>
<path fill-rule="evenodd" clip-rule="evenodd" d="M44.2174 23.1924C43.7735 22.9359 43.2265 22.9359 42.7826 23.1924L34.7165 27.8533C34.2731 28.1096 34 28.5828 34 29.0949V38.419C34 38.9311 34.2731 39.4043 34.7165 39.6606L40.1862 42.8212C40.6296 43.0774 40.9027 43.5507 40.9027 44.0628V61.896V62.2545C40.9027 62.8485 41.3842 63.33 41.9782 63.33H42.3367H44.6633H45.0263C45.6203 63.33 46.1018 62.8485 46.1018 62.2545V43.9493C46.1388 43.4815 46.4034 43.0584 46.8138 42.8212L52.2835 39.6606C52.7269 39.4043 53 38.9311 53 38.419V29.0949C53 28.5828 52.7269 28.1096 52.2835 27.8533L44.2174 23.1924ZM44.044 29.1048C43.7092 28.9095 43.2953 28.9095 42.9605 29.1048L39.7333 30.9865C39.4028 31.1792 39.1996 31.533 39.1996 31.9156V35.6977C39.1996 36.0803 39.4028 36.434 39.7333 36.6268L42.9605 38.5085C43.2953 38.7037 43.7092 38.7037 44.044 38.5085L47.2712 36.6268C47.6017 36.434 47.8049 36.0803 47.8049 35.6977V31.9156C47.8049 31.533 47.6017 31.1792 47.2712 30.9865L44.044 29.1048ZM49.4193 53.3397C48.7023 52.9215 47.8019 53.4386 47.8019 54.2687L47.8019 54.9057L47.8019 59.9245V60.5615C47.8019 61.3916 48.7023 61.9087 49.4193 61.4905L51.5702 60.2358C51.9006 60.0431 52.1038 59.6893 52.1038 59.3068V55.5234C52.1038 55.1409 51.9006 54.7872 51.5702 54.5944L49.4193 53.3397Z" fill="white"/>
</svg>
</svg>